<?xml version="1.0"?>
<svg version="1.1" xmlns="http://www.w3.org/2000/svg" xmlns:xlink="http://www.w3.org/1999/xlink" width="512" height="512">
    <desc iVinci="yes" version="4.6" gridStep="20" showGrid="no" snapToGrid="no" codePlatform="0"/>
    <g id="Layer1" name="Layer 1" opacity="1">
        <g id="Shape1">
            <desc shapeID="1" type="0" basicInfo-basicType="0" basicInfo-roundedRectRadius="12" basicInfo-polygonSides="6" basicInfo-starPoints="5" bounding="rect(-256,-165.042,512,330.084)" text="" font-familyName="" font-pixelSize="20" font-bold="0" font-underline="0" font-alignment="1" strokeStyle="0" markerStart="0" markerEnd="0" shadowEnabled="0" shadowOffsetX="0" shadowOffsetY="2" shadowBlur="4" shadowOpacity="160" blurEnabled="0" blurRadius="4" transform="matrix(1,0,0,1,256,346.958)" pers-center="0,0" pers-size="0,0" pers-start="0,0" pers-end="0,0" locked="0" mesh="" flag=""/>
            <path id="shapePath1" d="M428,349.916 C474.317,349.916 512,312.234 512,265.916 C512,219.598 474.317,181.916 428,181.916 L278.999,181.916 C273.477,181.916 268.999,186.393 268.999,191.916 C268.999,197.439 273.477,201.916 278.999,201.916 L397.704,201.916 L397.704,252.594 C397.704,310.479 373.109,365.441 330.115,404 L136.972,404 C137.267,403.714 137.569,403.437 137.861,403.146 C149.433,391.574 156.715,376.968 158.365,362.017 C160.105,346.24 155.459,331.946 145.281,321.768 C129.166,305.655 102.994,304.366 80.64,316.61 C73.78,295.965 70.296,274.489 70.296,252.594 L70.296,201.916 L189,201.916 C194.523,201.916 199,197.439 199,191.916 C199,186.393 194.523,181.916 189,181.916 L60.295,181.916 C54.773,181.916 50.295,186.393 50.295,191.916 L50.295,252.594 C50.295,278.886 54.865,304.628 63.862,329.229 C52.314,340.795 45.046,355.384 43.399,370.316 C42.005,382.947 44.715,394.621 51.071,404 L10,404 C4.47701,404 0,408.477 0,414 C0,445.981 26.019,472 58,472 L89.005,472 C93.651,494.794 113.855,512 138,512 L329.999,512 C354.145,512 374.349,494.794 378.994,472 L409.999,472 C441.981,472 467.999,445.981 467.999,414 C467.999,408.477 463.522,404 457.999,404 L358.574,404 C373.535,387.776 385.907,369.535 395.401,349.917 L428,349.917 L428,349.916 M138.484,359.824 C137.332,370.272 132.088,380.635 123.717,389.004 L123.717,389.005 C115.348,397.374 104.986,402.618 94.537,403.771 C90.781,404.186 87.201,404.033 83.883,403.358 C82.846,390.9 90.892,379.095 103.394,375.846 C119.899,371.558 131.996,358.81 136.275,343.458 C138.373,348.213 139.149,353.797 138.484,359.824 M63.277,372.51 C64.43,362.062 69.674,351.699 78.044,343.33 C87.905,333.469 100.258,328.274 111.314,328.274 C113.566,328.274 115.763,328.496 117.875,328.932 C118.935,341.407 110.884,353.237 98.366,356.489 C81.862,360.777 69.765,373.525 65.486,388.878 C63.389,384.12 62.612,378.537 63.277,372.51 M409.999,452 L369.999,452 C364.477,452 359.999,456.477 359.999,462 C359.999,478.542 346.541,492 329.999,492 L138,492 C121.458,492 108,478.542 108,462 C108,456.477 103.522,452 98,452 L58,452 C40.506,452 25.735,440.118 21.335,424 L446.664,424 C442.264,440.118 427.493,452 409.999,452 M428,201.916 C463.29,201.916 492,230.626 492,265.916 C492,301.206 463.29,329.916 428,329.916 L403.904,329.916 C406.796,322.074 409.256,314.064 411.257,305.916 L428,305.916 C450.056,305.916 468,287.972 468,265.916 C468,243.86 450.056,225.916 428,225.916 L417.704,225.916 L417.704,201.916 L428,201.916 M417.704,245.916 L428,245.916 C439.028,245.916 448,254.888 448,265.916 C448,276.944 439.028,285.916 428,285.916 L415.192,285.916 C416.841,274.962 417.704,263.83 417.704,252.594 L417.704,245.916 Z" style="stroke:none;fill-rule:nonzero;fill:#454d58;fill-opacity:1;"/>
        </g>
        <g id="Shape2">
            <desc shapeID="2" type="0" basicInfo-basicType="0" basicInfo-roundedRectRadius="12" basicInfo-polygonSides="6" basicInfo-starPoints="5" bounding="rect(-20.3263,-59.9064,40.6525,119.813)" text="" font-familyName="" font-pixelSize="20" font-bold="0" font-underline="0" font-alignment="1" strokeStyle="0" markerStart="0" markerEnd="0" shadowEnabled="0" shadowOffsetX="0" shadowOffsetY="2" shadowBlur="4" shadowOpacity="160" blurEnabled="0" blurRadius="4" transform="matrix(1,0,0,1,314.657,97.0946)" pers-center="0,0" pers-size="0,0" pers-start="0,0" pers-end="0,0" locked="0" mesh="" flag=""/>
            <path id="shapePath2" d="M307.598,139.929 C303.693,143.834 303.693,150.166 307.598,154.072 C309.551,156.025 312.11,157.001 314.669,157.001 C317.229,157.001 319.787,156.025 321.74,154.072 C339.398,136.413 339.398,107.681 321.74,90.023 C316.963,85.247 314.332,78.896 314.332,72.141 C314.332,65.386 316.963,59.036 321.74,54.259 C325.645,50.354 325.645,44.022 321.74,40.117 C317.836,36.212 311.506,36.212 307.597,40.117 C299.043,48.671 294.331,60.044 294.331,72.141 C294.331,84.238 299.043,95.611 307.597,104.165 C317.458,114.025 317.458,130.068 307.598,139.929 Z" style="stroke:none;fill-rule:nonzero;fill:#454d58;fill-opacity:1;"/>
        </g>
        <g id="Shape3">
            <desc shapeID="3" type="0" basicInfo-basicType="0" basicInfo-roundedRectRadius="12" basicInfo-polygonSides="6" basicInfo-starPoints="5" bounding="rect(-20.315,-59.9069,40.63,119.814)" text="" font-familyName="" font-pixelSize="20" font-bold="0" font-underline="0" font-alignment="1" strokeStyle="0" markerStart="0" markerEnd="0" shadowEnabled="0" shadowOffsetX="0" shadowOffsetY="2" shadowBlur="4" shadowOpacity="160" blurEnabled="0" blurRadius="4" transform="matrix(1,0,0,1,153.331,97.0941)" pers-center="0,0" pers-size="0,0" pers-start="0,0" pers-end="0,0" locked="0" mesh="" flag=""/>
            <path id="shapePath3" d="M146.26,139.929 C142.355,143.834 142.355,150.166 146.26,154.072 C148.213,156.025 150.772,157.001 153.331,157.001 C155.89,157.001 158.449,156.025 160.402,154.072 C178.06,136.413 178.06,107.681 160.402,90.023 C150.542,80.163 150.542,64.119 160.402,54.259 C164.307,50.354 164.307,44.022 160.402,40.116 C156.496,36.211 150.166,36.211 146.259,40.116 C128.601,57.774 128.601,86.507 146.259,104.165 C156.12,114.025 156.12,130.068 146.26,139.929 Z" style="stroke:none;fill-rule:nonzero;fill:#454d58;fill-opacity:1;"/>
        </g>
        <g id="Shape4">
            <desc shapeID="4" type="0" basicInfo-basicType="0" basicInfo-roundedRectRadius="12" basicInfo-polygonSides="6" basicInfo-starPoints="5" bounding="rect(-24.173,-78.4999,48.346,157)" text="" font-familyName="" font-pixelSize="20" font-bold="0" font-underline="0" font-alignment="1" strokeStyle="0" markerStart="0" markerEnd="0" shadowEnabled="0" shadowOffsetX="0" shadowOffsetY="2" shadowBlur="4" shadowOpacity="160" blurEnabled="0" blurRadius="4" transform="matrix(1,0,0,1,233.986,78.5001)" pers-center="0,0" pers-size="0,0" pers-start="0,0" pers-end="0,0" locked="0" mesh="" flag=""/>
            <path id="shapePath4" d="M226.929,139.929 C223.024,143.834 223.024,150.166 226.929,154.071 C228.882,156.024 231.44,157 234,157 C236.56,157 239.118,156.023 241.071,154.071 C263.855,131.287 263.855,94.214 241.071,71.429 C233.811,64.169 229.813,54.517 229.813,44.25 C229.813,33.983 233.811,24.331 241.071,17.071 C244.976,13.166 244.976,6.834 241.071,2.929 C237.166,-0.975998 230.836,-0.975998 226.928,2.929 C215.891,13.966 209.813,28.641 209.813,44.25 C209.813,59.859 215.891,74.534 226.928,85.571 C241.915,100.558 241.915,124.942 226.929,139.929 Z" style="stroke:none;fill-rule:nonzero;fill:#454d58;fill-opacity:1;"/>
        </g>
        <g id="Shape5">
            <desc shapeID="5" type="0" basicInfo-basicType="0" basicInfo-roundedRectRadius="12" basicInfo-polygonSides="6" basicInfo-starPoints="5" bounding="rect(-10,-10,20,20)" text="" font-familyName="" font-pixelSize="20" font-bold="0" font-underline="0" font-alignment="1" strokeStyle="0" markerStart="0" markerEnd="0" shadowEnabled="0" shadowOffsetX="0" shadowOffsetY="2" shadowBlur="4" shadowOpacity="160" blurEnabled="0" blurRadius="4" transform="matrix(1,0,0,1,234,191.92)" pers-center="0,0" pers-size="0,0" pers-start="0,0" pers-end="0,0" locked="0" mesh="" flag=""/>
            <path id="shapePath5" d="M234,181.92 C231.37,181.92 228.79,182.98 226.93,184.84 C225.07,186.71 224,189.28 224,191.92 C224,194.55 225.069,197.13 226.93,198.99 C228.79,200.85 231.37,201.92 234,201.92 C236.63,201.92 239.21,200.85 241.069,198.99 C242.929,197.13 244,194.55 244,191.92 C244,189.28 242.93,186.71 241.069,184.84 C239.21,182.98 236.63,181.92 234,181.92 Z" style="stroke:none;fill-rule:nonzero;fill:#454d58;fill-opacity:1;"/>
        </g>
    </g>
</svg>
