<?xml version="1.0"?>
<svg version="1.1" xmlns="http://www.w3.org/2000/svg" xmlns:xlink="http://www.w3.org/1999/xlink" width="16" height="17">
    <desc iVinci="yes" version="4.6" gridStep="20" showGrid="no" snapToGrid="no" codePlatform="0"/>
    <g id="Layer1" name="Layer 1" opacity="1">
        <g id="Shape1">
            <desc shapeID="1" type="0" basicInfo-basicType="0" basicInfo-roundedRectRadius="12" basicInfo-polygonSides="6" basicInfo-starPoints="5" bounding="rect(-8,-8.5,16,17)" text="" font-familyName="" font-pixelSize="20" font-bold="0" font-underline="0" font-alignment="1" strokeStyle="0" markerStart="0" markerEnd="0" shadowEnabled="0" shadowOffsetX="0" shadowOffsetY="2" shadowBlur="4" shadowOpacity="160" blurEnabled="0" blurRadius="4" transform="matrix(1,0,0,1,8,8.5)" pers-center="0,0" pers-size="0,0" pers-start="0,0" pers-end="0,0" locked="0" mesh="" flag=""/>
            <path id="shapePath1" d="M12.219,7.749 C12.1323,7.55919 11.9427,7.43758 11.734,7.438 L9.6,7.438 L9.6,0.531 C9.59945,0.237185 9.36082,-0.000553131 9.067,0 L6.933,0 C6.63918,-0.000553131 6.40055,0.237185 6.4,0.531 L6.4,7.438 L4.267,7.438 C4.05848,7.43808 3.86908,7.55953 3.782,7.749 C3.69473,7.93888 3.72767,8.16236 3.866,8.319 L7.6,12.568 C7.70119,12.6829 7.8469,12.7487 8,12.7487 C8.1531,12.7487 8.29881,12.6829 8.4,12.568 L12.133,8.318 C12.2716,8.16199 12.3053,7.939 12.219,7.749 M13.867,11.688 L13.867,14.876 L2.133,14.876 L2.133,11.688 L0,11.688 L0,15.938 C0.00110292,16.526 0.478979,17.0017 1.067,17 L14.933,17 C15.521,17.0017 15.9989,16.526 16,15.938 L16,11.688 L13.867,11.688 Z" style="stroke:none;fill-rule:nonzero;fill:#4ca0ff;fill-opacity:1;"/>
        </g>
    </g>
</svg>
