<svg xmlns="http://www.w3.org/2000/svg" width="100" height="100" viewBox="0 0 100 100">
  <defs>
    <style>
      .cls-1 {
        fill: #596676;
        fill-rule: evenodd;
      }
    </style>
  </defs>
  <path id="handle" class="cls-1" d="M60.91,63.6l3.536-3.536a4,4,0,0,1,5.657,0L93.437,83.4a4,4,0,0,1,0,5.657L89.9,92.6a4,4,0,0,1-5.657,0L60.91,69.261A4,4,0,0,1,60.91,63.6Z"/>
  <path id="circle" class="cls-1" d="M66.667,67.147a35.74,35.74,0,1,1,0-50.543A35.74,35.74,0,0,1,66.667,67.147ZM24.548,25.027a23.826,23.826,0,1,0,33.7,0A23.826,23.826,0,0,0,24.548,25.027Z"/>
</svg>
