<svg id="Vrstva_1" data-name="Vrstva 1" xmlns="http://www.w3.org/2000/svg" viewBox="0 0 256.63 45.88"><defs><style>.cls-1{fill:#e20000;}.cls-2{fill:#454863;}</style></defs><title>Logo RedmineX - color</title><path class="cls-1" d="M460.9,493.13h-1.8a7.81,7.81,0,0,0-1.8.16,1.66,1.66,0,0,0-1,.71l-5.52,8.56L445.52,494q-0.51-.87-2.76-0.87h-1.89a7.93,7.93,0,0,0-2.21.23,0.82,0.82,0,0,0-.74.64,2.7,2.7,0,0,0,.46,1.15l8.43,13.49-9.48,14.87a2.44,2.44,0,0,0-.46,1.15q0,0.87,2.9.87h1.75a7.75,7.75,0,0,0,1.82-.16,1.66,1.66,0,0,0,1-.71l6.35-9.9,6.12,9.9q0.51,0.87,2.76.87h1.79q2.9,0,2.9-.87a2.38,2.38,0,0,0-.41-1.15l-9.21-14.78,8.7-13.58a2.07,2.07,0,0,0,.46-1.15q0-.87-2.9-0.87" transform="translate(-207.63 -493.12)"/><path class="cls-2" d="M419.82,513.59a3.63,3.63,0,0,1,3.25,1.66,8,8,0,0,1,1.08,4.43H414.4q1-6.08,5.42-6.08m0-7q-6.86,0-10.75,4T405.19,523q0,7.53,3.88,11.77T420.91,539a25.14,25.14,0,0,0,4.51-.48,15.51,15.51,0,0,0,4.46-1.47q1.87-1,1.87-2.38a4.58,4.58,0,0,0-.51-1.72,8.39,8.39,0,0,0-1.26-2,2,2,0,0,0-1.35-.87,3.8,3.8,0,0,0-1.32.48,29.09,29.09,0,0,1-2.89,1,11.28,11.28,0,0,1-3.07.39,7.43,7.43,0,0,1-4.88-1.44q-1.75-1.44-2-4.88h15.35a3.45,3.45,0,0,0,1.84-1.41,4.06,4.06,0,0,0,1.23-2.14q0-6.86-3.16-11.2t-9.84-4.33m-28.73,0a10.47,10.47,0,0,0-5.12,1.32,11.88,11.88,0,0,0-3.85,3.25q-0.06-.36-0.27-1.32a7.23,7.23,0,0,0-.63-1.78,1.55,1.55,0,0,0-1.51-.81,22.56,22.56,0,0,0-4.31.48q-2.44.48-2.44,1.45a6.67,6.67,0,0,0,.18,1.26q0.24,1.75.39,3.16t0.15,4.06v19.09q0,1.93,3.61,1.93H379q3.61,0,3.61-1.93V517.38a8.15,8.15,0,0,1,2-2.44,4.27,4.27,0,0,1,2.86-1.05,3.58,3.58,0,0,1,2.77.93,4.06,4.06,0,0,1,.84,2.8v19.09q0,1.93,3.61,1.93h1.69q3.61,0,3.61-1.93V516.3q0-5-2.17-7.38t-6.68-2.38m-27.68.36h-1.69q-3.61,0-3.61,1.93v27.88q0,1.93,3.61,1.93h1.69q3.61,0,3.61-1.93V508.84q0-1.93-3.61-1.93m0-13.79h-1.69q-3.61,0-3.61,1.93v4.88q0,1.93,3.61,1.93h1.69q3.61,0,3.61-1.93V495q0-1.93-3.61-1.93m-20.78,13.43a11,11,0,0,0-5.3,1.32,12.38,12.38,0,0,0-4,3.25,6.51,6.51,0,0,0-2.86-3.46,11.24,11.24,0,0,0-10.18.21,12,12,0,0,0-3.82,3.25q-0.06-.36-0.27-1.32a7.23,7.23,0,0,0-.63-1.78,1.55,1.55,0,0,0-1.51-.81,22.54,22.54,0,0,0-4.31.48q-2.44.48-2.44,1.45a6.61,6.61,0,0,0,.18,1.26q0.24,1.75.39,3.16t0.15,4.06v19.09q0,1.93,3.61,1.93h1.69q3.61,0,3.61-1.93V517.38a8.35,8.35,0,0,1,1.93-2.44,4.16,4.16,0,0,1,2.83-1.05,3.48,3.48,0,0,1,2.74.93,4.16,4.16,0,0,1,.81,2.8v19.09q0,1.93,3.61,1.93h1.69q3.61,0,3.61-1.93V517.32q2-3.43,4.76-3.43a3.48,3.48,0,0,1,2.74.93,4.16,4.16,0,0,1,.81,2.8v19.09q0,1.93,3.61,1.93h1.68q3.61,0,3.61-1.93V516.3q0-5-2.14-7.38t-6.65-2.38m-54.55,7a8.54,8.54,0,0,1,4.21,1.14v13.43q-2,3.55-4.94,3.55-4.88,0-4.88-9,0-9.15,5.6-9.15m9.51-20.47h-1.69q-3.61,0-3.61,1.93v13.37a10.22,10.22,0,0,0-6.14-1.87,11.12,11.12,0,0,0-9.36,4.36q-3.34,4.37-3.34,11.83a24,24,0,0,0,1.44,8.79,12.31,12.31,0,0,0,4,5.57,9.5,9.5,0,0,0,5.81,1.9,9.34,9.34,0,0,0,4.85-1.27,8.48,8.48,0,0,0,3.22-3.25q0.06,0.36.27,1.35a8.14,8.14,0,0,0,.63,1.87,1.53,1.53,0,0,0,1.51.87,22.56,22.56,0,0,0,4.31-.48q2.44-.48,2.44-1.45a6,6,0,0,0-.18-1.32q-0.24-1.75-.39-3.19t-0.15-4.22V495q0-1.93-3.61-1.93m-41.21,20.47a3.63,3.63,0,0,1,3.25,1.66,8,8,0,0,1,1.08,4.43H251q1-6.08,5.42-6.08m0-7q-6.86,0-10.75,4T241.76,523q0,7.53,3.88,11.77T257.47,539a25.14,25.14,0,0,0,4.51-.48,15.51,15.51,0,0,0,4.46-1.47q1.87-1,1.87-2.38a4.58,4.58,0,0,0-.51-1.72,8.39,8.39,0,0,0-1.26-2,2,2,0,0,0-1.35-.87,3.8,3.8,0,0,0-1.32.48,29.09,29.09,0,0,1-2.89,1,11.28,11.28,0,0,1-3.07.39,7.44,7.44,0,0,1-4.88-1.44q-1.75-1.44-2-4.88h15.35a3.45,3.45,0,0,0,1.84-1.41,4.06,4.06,0,0,0,1.23-2.14q0-6.86-3.16-11.2t-9.84-4.33m-34.19-2.29a5.29,5.29,0,0,1,3.7,1.23,4.3,4.3,0,0,1,1.35,3.34,5.23,5.23,0,0,1-1.39,3.67,4.29,4.29,0,0,1-3.25,1.51H216.9v-9.75h5.3Zm-0.42-7.89H210a2.07,2.07,0,0,0-2.41,2.41v37.93q0,1.93,3.61,1.93h2q3.61,0,3.61-1.93V522h2.35a7,7,0,0,1,3.88.81,7.54,7.54,0,0,1,2.2,2.8l4.76,11.74q0.48,1.26,3.49,1.27H236a8.34,8.34,0,0,0,2.71-.33,1.07,1.07,0,0,0,.9-0.87,3.66,3.66,0,0,0-.3-1.14L234.06,523a15.55,15.55,0,0,0-2-3.52,5.65,5.65,0,0,0-2.35-2v-0.24a11.14,11.14,0,0,0,5.15-3.7,9.43,9.43,0,0,0,1.9-5.87q0-11.32-15-11.32" transform="translate(-207.63 -493.12)"/></svg>