<?xml version="1.0"?>
<svg version="1.1" xmlns="http://www.w3.org/2000/svg" xmlns:xlink="http://www.w3.org/1999/xlink" width="290.04" height="57.5">
    <desc iVinci="yes" version="4.6" gridStep="20" showGrid="no" snapToGrid="no" codePlatform="0"/>
    <g id="Layer1" name="Layer 1" opacity="1">
        <g id="Shape1">
            <desc shapeID="1" type="0" basicInfo-basicType="0" basicInfo-roundedRectRadius="12" basicInfo-polygonSides="6" basicInfo-starPoints="5" bounding="rect(-102.163,-23.14,204.327,46.28)" text="" font-familyName="" font-pixelSize="20" font-bold="0" font-underline="0" font-alignment="1" strokeStyle="0" markerStart="0" markerEnd="0" shadowEnabled="0" shadowOffsetX="0" shadowOffsetY="2" shadowBlur="4" shadowOpacity="160" blurEnabled="0" blurRadius="4" transform="matrix(1,0,0,1,187.837,34.36)" pers-center="0,0" pers-size="0,0" pers-start="0,0" pers-end="0,0" locked="0" mesh="" flag=""/>
            <path id="shapePath1" d="M279,25.39 C281.003,25.2414 282.947,26.1047 284.18,27.69 C285.3,29.2233 285.86,31.59 285.86,34.79 C285.86,37.99 285.3,40.35 284.18,41.87 C282.945,43.4515 281.001,44.3109 279,44.16 C277.011,44.3216 275.075,43.4631 273.86,41.88 C272.773,40.36 272.23,38 272.23,34.8 C272.23,31.6 272.773,29.2233 273.86,27.67 C275.075,26.0869 277.011,25.2284 279,25.39 M279.14,21.93 C275.553,21.93 272.8,23.05 270.88,25.29 C268.96,27.53 268,30.73 268,34.89 C268,39.0167 268.953,42.17 270.86,44.35 C272.767,46.53 275.527,47.6167 279.14,47.61 C282.727,47.61 285.44,46.53 287.28,44.37 C289.12,42.21 290.027,39.05 290,34.89 C290,30.6967 289.063,27.49 287.19,25.27 C285.317,23.05 282.62,21.9367 279.1,21.93 M254.53,21.93 C253.137,21.9493 251.768,22.2916 250.53,22.93 C249.207,23.5806 248.019,24.4764 247.03,25.57 C247.03,25.41 246.957,25.0767 246.81,24.57 C246.701,24.0681 246.54,23.5789 246.33,23.11 C246.194,22.6767 245.784,22.3892 245.33,22.41 C244.761,22.418 244.195,22.5055 243.65,22.67 C243.189,22.7059 242.813,23.0533 242.74,23.51 C242.74,23.6033 242.837,24.1067 243.03,25.02 C243.266,26.5213 243.363,28.041 243.32,29.56 L243.32,46.36 C243.32,47.0667 243.96,47.42 245.24,47.42 L245.43,47.42 C246.71,47.42 247.35,47.0667 247.35,46.36 L247.35,28.8 C248.115,27.8056 249.071,26.9728 250.16,26.35 C251.142,25.7679 252.259,25.4541 253.4,25.44 C254.721,25.3515 256.022,25.7902 257.02,26.66 C257.906,27.5747 258.366,28.8192 258.29,30.09 L258.29,46.36 C258.29,47.0667 258.93,47.42 260.21,47.42 L260.4,47.42 C261.68,47.42 262.32,47.0667 262.32,46.36 L262.32,29.71 C262.461,27.6116 261.735,25.5473 260.31,24 C258.756,22.5628 256.684,21.8192 254.57,21.94 M234.09,22.13 L233.9,22.13 C232.62,22.13 231.98,22.4833 231.98,23.19 L231.98,46.36 C231.98,47.0667 232.62,47.42 233.9,47.42 L234.09,47.42 C235.37,47.42 236.01,47.0667 236.01,46.36 L236.01,23.18 C236.01,22.48 235.37,22.1267 234.09,22.12 M234.28,11.22 L233.7,11.22 C232.42,11.22 231.78,11.5733 231.78,12.28 L231.78,15.11 C231.78,15.8167 232.42,16.17 233.7,16.17 L234.28,16.17 C235.56,16.17 236.2,15.8167 236.2,15.11 L236.2,12.28 C236.2,11.5733 235.56,11.22 234.28,11.22 M219.9,16.12 L219.42,16.12 C218.46,16.12 217.947,16.4733 217.88,17.18 L217.3,22.18 L214.9,22.18 C214.618,22.1633 214.346,22.2914 214.18,22.52 C213.993,22.8549 213.91,23.2377 213.94,23.62 L213.94,24.2 C213.91,24.5823 213.993,24.9651 214.18,25.3 C214.346,25.5286 214.618,25.6567 214.9,25.64 L217.3,25.64 L217.3,41 C217.3,43.4667 217.933,45.1867 219.2,46.16 C220.425,47.1221 221.942,47.6372 223.5,47.62 C225.833,47.62 227,47.14 227,46.18 C226.97,45.7117 226.873,45.2502 226.71,44.81 C226.68,44.3917 226.393,44.0364 225.99,43.92 C225.753,43.9321 225.518,43.9724 225.29,44.04 C224.84,44.1343 224.38,44.1746 223.92,44.16 C223.204,44.1961 222.509,43.9143 222.02,43.39 C221.468,42.5741 221.22,41.5901 221.32,40.61 L221.32,25.68 L225.32,25.68 C225.609,25.7058 225.891,25.5765 226.06,25.34 C226.231,24.9997 226.307,24.6198 226.28,24.24 L226.28,23.66 C226.307,23.2802 226.231,22.9003 226.06,22.56 C225.891,22.3235 225.609,22.1942 225.32,22.22 L221.32,22.22 L221.32,17.22 C221.32,16.52 220.84,16.1667 219.88,16.16 M202.68,21.97 C199.702,21.8785 196.802,22.9264 194.57,24.9 C192.397,26.8533 191.31,30.1167 191.31,34.69 C191.31,39.2633 192.287,42.56 194.24,44.58 C196.193,46.6267 199.153,47.65 203.12,47.65 C204.377,47.66 205.631,47.5325 206.86,47.27 C207.818,47.0805 208.746,46.7644 209.62,46.33 C210.129,46.1553 210.508,45.7263 210.62,45.2 C210.561,44.6549 210.361,44.1345 210.04,43.69 C209.858,43.225 209.463,42.8756 208.98,42.75 L208.45,42.94 C206.766,43.7754 204.91,44.2036 203.03,44.19 C200.363,44.19 198.45,43.4367 197.29,41.93 C196.13,40.4233 195.563,37.9767 195.59,34.59 C195.59,28.4767 197.923,25.42 202.59,25.42 C204.395,25.4297 206.177,25.8216 207.82,26.57 C207.929,26.5949 208.033,26.6353 208.13,26.69 C208.196,26.733 208.272,26.7572 208.35,26.76 C208.825,26.607 209.197,26.2348 209.35,25.76 C209.661,25.276 209.85,24.7234 209.9,24.15 C209.9,23.5767 209.163,23.0633 207.69,22.61 C206.066,22.1411 204.381,21.9154 202.69,21.94 M176.89,25.4 C180.73,25.4 182.65,27.9267 182.65,32.98 L170.18,32.98 C170.533,27.9267 172.773,25.4 176.9,25.4 M177,21.93 C173.32,21.93 170.537,23.0333 168.65,25.24 C166.763,27.4467 165.82,30.68 165.82,34.94 C165.82,39.2267 166.78,42.41 168.7,44.49 C170.62,46.57 173.58,47.61 177.58,47.61 C179.012,47.6202 180.44,47.4522 181.83,47.11 C182.95,46.856 184.026,46.4346 185.02,45.86 C185.605,45.6326 186.049,45.1439 186.22,44.54 C186.142,44.0177 185.936,43.5229 185.62,43.1 C185.441,42.6129 185.039,42.2411 184.54,42.1 C184.155,42.2236 183.786,42.3914 183.44,42.6 C182.659,42.9927 181.85,43.3269 181.02,43.6 C179.895,43.957 178.72,44.126 177.54,44.1 C175.58,44.253 173.645,43.5743 172.21,42.23 C171.023,40.9833 170.337,39.03 170.15,36.37 L185.32,36.37 C185.749,36.2692 186.113,35.9886 186.32,35.6 C186.627,35.2653 186.828,34.8481 186.9,34.4 C186.9,30.3067 186.067,27.1933 184.4,25.06 C182.733,22.9267 180.267,21.8833 177,21.93 M158,22.12 L157.81,22.12 C156.53,22.12 155.89,22.4733 155.89,23.18 L155.89,50.49 C155.99,51.4701 155.742,52.4541 155.19,53.27 C154.701,53.7943 154.006,54.0761 153.29,54.04 C152.83,54.0541 152.37,54.0138 151.92,53.92 C151.692,53.8524 151.457,53.8121 151.22,53.8 C150.817,53.9164 150.53,54.2717 150.5,54.69 C150.337,55.1302 150.24,55.5917 150.21,56.06 C150.21,57.02 151.377,57.5 153.71,57.5 C155.269,57.5028 156.782,56.9736 158,56 C159.267,55.02 159.9,53.3 159.9,50.84 L159.9,23.18 C159.9,22.48 159.26,22.1267 157.98,22.12 M158.17,11.22 L157.59,11.22 C156.31,11.22 155.67,11.5733 155.67,12.28 L155.67,15.11 C155.67,15.8167 156.31,16.17 157.59,16.17 L158.17,16.17 C159.45,16.17 160.09,15.8167 160.09,15.11 L160.09,12.28 C160.09,11.5733 159.45,11.22 158.17,11.22 M138.66,25.39 C140.663,25.2414 142.607,26.1047 143.84,27.69 C144.96,29.2233 145.52,31.59 145.52,34.79 C145.52,37.99 144.96,40.35 143.84,41.87 C142.603,43.4478 140.659,44.3032 138.66,44.15 C136.671,44.3116 134.735,43.4531 133.52,41.87 C132.433,40.35 131.89,37.99 131.89,34.79 C131.89,31.59 132.433,29.2133 133.52,27.66 C134.735,26.0769 136.671,25.2184 138.66,25.38 M138.8,21.92 C135.213,21.92 132.46,23.04 130.54,25.28 C128.62,27.52 127.66,30.72 127.66,34.88 C127.66,39.0067 128.613,42.16 130.52,44.34 C132.427,46.52 135.187,47.6067 138.8,47.6 C142.387,47.6 145.1,46.52 146.94,44.36 C148.78,42.2 149.7,39.04 149.7,34.88 C149.7,30.6867 148.763,27.48 146.89,25.26 C145.017,23.04 142.32,21.9267 138.8,21.92 M122.04,21.92 C120.04,21.92 118.183,23.12 116.47,25.52 C116.47,25.36 116.397,25.0267 116.25,24.52 C116.141,24.0181 115.98,23.5289 115.77,23.06 C115.634,22.6267 115.224,22.3392 114.77,22.36 C114.201,22.368 113.635,22.4555 113.09,22.62 C112.629,22.6559 112.253,23.0033 112.18,23.46 C112.18,23.5533 112.277,24.0567 112.47,24.97 C112.706,26.4713 112.803,27.991 112.76,29.51 L112.76,46.36 C112.76,47.0667 113.4,47.42 114.68,47.42 L114.87,47.42 C116.15,47.42 116.79,47.0667 116.79,46.36 L116.79,28.8 C116.975,28.4852 117.2,28.196 117.46,27.94 C117.947,27.3941 118.505,26.9165 119.12,26.52 C119.736,26.0992 120.464,25.8728 121.21,25.87 C121.788,25.8543 122.363,25.9423 122.91,26.13 C123.209,26.2614 123.526,26.349 123.85,26.39 C124.233,26.2567 124.498,25.9051 124.52,25.5 C124.705,24.952 124.803,24.3784 124.81,23.8 C124.811,23.2605 124.541,22.7567 124.09,22.46 C123.476,22.0708 122.755,21.8853 122.03,21.93 M96.72,17.37 C98.3328,17.328 99.9211,17.7704 101.28,18.64 C102.56,19.4867 103.2,20.9833 103.2,23.13 C103.2,25.4367 102.577,27.0533 101.33,27.98 C100.205,28.8643 98.8205,29.3529 97.39,29.37 L89.91,29.37 L89.91,17.37 L96.73,17.37 L96.72,17.37 M96.86,13.72 L87.12,13.72 C86.7229,13.6847 86.3279,13.8068 86.02,14.06 C85.7668,14.3679 85.6447,14.7629 85.68,15.16 L85.68,46.36 C85.68,47.0667 86.32,47.42 87.6,47.42 L88,47.42 C89.28,47.42 89.92,47.0667 89.92,46.36 L89.92,33 L97.36,33 C98.7833,32.9717 100.193,32.722 101.54,32.26 C105.392,30.9398 107.86,27.179 107.54,23.12 C107.54,19.5333 106.46,17.07 104.3,15.73 C102.053,14.3689 99.4661,13.6753 96.84,13.73 " style="stroke:none;fill-rule:nonzero;fill:#ffffff;fill-opacity:1;"/>
        </g>
        <g id="Shape2">
            <desc shapeID="2" type="0" basicInfo-basicType="0" basicInfo-roundedRectRadius="12" basicInfo-polygonSides="6" basicInfo-starPoints="5" bounding="rect(-21.2891,-28.7304,42.5781,57.4608)" text="" font-familyName="" font-pixelSize="20" font-bold="0" font-underline="0" font-alignment="1" strokeStyle="0" markerStart="0" markerEnd="0" shadowEnabled="0" shadowOffsetX="0" shadowOffsetY="2" shadowBlur="4" shadowOpacity="160" blurEnabled="0" blurRadius="4" transform="matrix(1,0,0,1,21.2611,28.775)" pers-center="0,0" pers-size="0,0" pers-start="0,0" pers-end="0,0" locked="0" mesh="" flag=""/>
            <path id="shapePath2" d="M17.79,55.35 C25.37,51 33.28,40.56 38.06,30 C40.84,23.83 42.57,17.61 42.55,12.49 C42.55,7.61 40.68,4.17 38.06,2.16 C31.76,-2.67 21.06,0.77 21.06,12.49 C21.06,17.87 22.87,23.83 25.06,28.96 L29.14,28.72 L30.22,26.46 C28.85,23.26 26.88,17.69 26.67,13.1 C26.25,3.19 37,2.9 36.92,12.4 C36.724,16.168 35.9308,19.8809 34.57,23.4 C31.9142,30.5201 28.0846,37.1451 23.24,43 C21.08,45.57 17.62,49.16 14.24,50.91 C7.33,54.43 3.24,47.46 7.54,43.32 C11.11,39.86 19.25,38.27 23.73,37.73 C25.04,35.73 26.43,33.73 27.63,31.63 C20.76,32 12.78,33.38 7,36.72 C5.18551,37.7266 3.57464,39.0628 2.25,40.66 C-4.55,49.21 4.83,62.79 17.76,55.36 " style="stroke:none;fill-rule:nonzero;fill:#4ca0ff;fill-opacity:1;"/>
        </g>
        <g id="Shape3">
            <desc shapeID="3" type="0" basicInfo-basicType="0" basicInfo-roundedRectRadius="12" basicInfo-polygonSides="6" basicInfo-starPoints="5" bounding="rect(-15.0424,-12.7255,30.0848,25.4509)" text="" font-familyName="" font-pixelSize="20" font-bold="0" font-underline="0" font-alignment="1" strokeStyle="0" markerStart="0" markerEnd="0" shadowEnabled="0" shadowOffsetX="0" shadowOffsetY="2" shadowBlur="4" shadowOpacity="160" blurEnabled="0" blurRadius="4" transform="matrix(1,0,0,1,48.6024,44.7255)" pers-center="0,0" pers-size="0,0" pers-start="0,0" pers-end="0,0" locked="0" mesh="" flag=""/>
            <path id="shapePath3" d="M38.46,35.62 L38.06,36.35 L37.44,37.47 L38.06,37.52 C44.71,38.14 58.35,40.69 57.86,47.37 C57.58,51.12 53.96,52.62 50.78,51.5 C46.12,49.87 41,43.94 38.33,40.44 L38.06,40.44 L35.79,40.26 L33.56,43.64 C34.953,45.5139 36.4556,47.3037 38.06,49 C40.3255,51.4746 42.9356,53.6098 45.81,55.34 C58,62.34 67.5,50.41 62.09,41.72 C60.6806,39.6285 58.7824,37.9123 56.56,36.72 C51.91,34 45.84,32.62 40.29,32 L38.46,35.62 Z" style="stroke:none;fill-rule:nonzero;fill:#4ca0ff;fill-opacity:1;"/>
        </g>
    </g>
</svg>
