<svg xmlns="http://www.w3.org/2000/svg" width="125" height="125" viewBox="0 0 125 125">
  <defs>
    <style>
      .cls-1 {
        fill: #4ca0ff;
        fill-rule: evenodd;
      }
    </style>
  </defs>
  <path id="Forma_1" data-name="Forma 1" class="cls-1" d="M124.42,51.705a2.565,2.565,0,0,0-1.711-1.019L107.8,48.406a49.233,49.233,0,0,0-3.341-7.984q1.464-2.037,4.4-5.744t4.155-5.418a3.136,3.136,0,0,0,.651-1.874,2.627,2.627,0,0,0-.57-1.792q-2.934-4.156-13.443-13.85a3.145,3.145,0,0,0-2.035-.814,2.646,2.646,0,0,0-1.956.732L84.091,20.378a50.36,50.36,0,0,0-7.333-3.015L74.476,2.373A2.415,2.415,0,0,0,73.54.621a3.079,3.079,0,0,0-2-.692H53.457A2.742,2.742,0,0,0,50.524,2.21a133.08,133.08,0,0,0-2.363,15.153,46.649,46.649,0,0,0-7.414,3.1L29.5,11.743a3.469,3.469,0,0,0-2.118-.814q-1.792,0-7.7,5.825a81.117,81.117,0,0,0-8.025,8.758,3.432,3.432,0,0,0-.733,1.874,3.058,3.058,0,0,0,.814,1.955q5.458,6.6,8.718,11.244a40.2,40.2,0,0,0-3.177,7.5L2.13,50.36A2.454,2.454,0,0,0,.582,51.42,3.136,3.136,0,0,0-.07,53.293V71.38a3.073,3.073,0,0,0,.652,1.914,2.567,2.567,0,0,0,1.711,1.021l14.91,2.2a40.225,40.225,0,0,0,3.34,8.064q-1.466,2.036-4.4,5.744t-4.155,5.418a3.139,3.139,0,0,0-.652,1.874,3.182,3.182,0,0,0,.57,1.872q3.177,4.4,13.443,13.688a2.8,2.8,0,0,0,2.037.9,2.933,2.933,0,0,0,2.037-.732l11.488-8.719a50.486,50.486,0,0,0,7.333,3.016l2.281,14.99a2.42,2.42,0,0,0,.937,1.752,3.071,3.071,0,0,0,2,.693H71.546a2.742,2.742,0,0,0,2.935-2.282,133.536,133.536,0,0,0,2.361-15.153,46.5,46.5,0,0,0,7.414-3.1l11.244,8.8a3.982,3.982,0,0,0,2.118.732q1.791,0,7.657-5.784a82.218,82.218,0,0,0,8.065-8.8,2.714,2.714,0,0,0,.734-1.872,3.141,3.141,0,0,0-.815-2.037q-5.865-7.17-8.718-11.243a52.21,52.21,0,0,0,3.178-7.414l15.072-2.279a2.492,2.492,0,0,0,1.63-1.062,3.146,3.146,0,0,0,.649-1.874V53.619A3.064,3.064,0,0,0,124.42,51.705ZM77.249,77.246A20.093,20.093,0,0,1,62.5,83.358,20.863,20.863,0,0,1,41.645,62.5,20.86,20.86,0,0,1,62.5,41.643,20.861,20.861,0,0,1,83.359,62.5,20.094,20.094,0,0,1,77.249,77.246Z"/>
</svg>
