<svg id="Vrstva_1" data-name="Vrstva 1" xmlns="http://www.w3.org/2000/svg" viewBox="0 0 290.04 57.5"><defs><style>.cls-1{fill:#454863;}.cls-2{fill:#4ca0ff;}</style></defs><title>Bez názvu-1</title><path class="cls-1" d="M279,25.39a6,6,0,0,1,5.18,2.3q1.68,2.3,1.68,7.1t-1.68,7.08A6,6,0,0,1,279,44.16a5.88,5.88,0,0,1-5.14-2.28q-1.63-2.28-1.63-7.08t1.63-7.13A5.88,5.88,0,0,1,279,25.39m0.14-3.46q-5.38,0-8.26,3.36T268,34.89q0,6.19,2.86,9.46t8.28,3.26q5.38,0,8.14-3.24T290,34.89q0-6.29-2.81-9.62t-8.09-3.34m-24.57,0a9,9,0,0,0-4,1,11.65,11.65,0,0,0-3.5,2.64q0-.24-0.22-1a7.47,7.47,0,0,0-.48-1.46,1,1,0,0,0-1-.7,6.11,6.11,0,0,0-1.68.26,1,1,0,0,0-.91.84q0,0.14.29,1.51a24.8,24.8,0,0,1,.29,4.54V46.36q0,1.06,1.92,1.06h0.19q1.92,0,1.92-1.06V28.8a9.49,9.49,0,0,1,2.81-2.45,6.51,6.51,0,0,1,3.24-.91,5,5,0,0,1,3.62,1.22,4.54,4.54,0,0,1,1.27,3.43V46.36q0,1.06,1.92,1.06h0.19q1.92,0,1.92-1.06V29.71A7.67,7.67,0,0,0,260.31,24a7.8,7.8,0,0,0-5.74-2.06m-20.48.19h-0.19q-1.92,0-1.92,1.06V46.36q0,1.06,1.92,1.06h0.19q1.92,0,1.92-1.06V23.18q0-1.05-1.92-1.06m0.19-10.9h-0.58q-1.92,0-1.92,1.06v2.83q0,1.06,1.92,1.06h0.58q1.92,0,1.92-1.06V12.28q0-1.06-1.92-1.06m-14.38,4.9h-0.48q-1.44,0-1.54,1.06l-0.58,5h-2.4a0.83,0.83,0,0,0-.72.34,1.94,1.94,0,0,0-.24,1.1v0.58a1.94,1.94,0,0,0,.24,1.1,0.83,0.83,0,0,0,.72.34h2.4V41q0,3.7,1.9,5.16a6.84,6.84,0,0,0,4.3,1.46q3.5,0,3.5-1.44a4.84,4.84,0,0,0-.29-1.37,1,1,0,0,0-.72-0.89,3,3,0,0,0-.7.12,5.79,5.79,0,0,1-1.37.12,2.43,2.43,0,0,1-1.9-.77,4.2,4.2,0,0,1-.7-2.78V25.68h4a0.82,0.82,0,0,0,.74-0.34,2.12,2.12,0,0,0,.22-1.1V23.66a2.12,2.12,0,0,0-.22-1.1,0.82,0.82,0,0,0-.74-0.34h-4v-5q0-1.05-1.44-1.06m-17.2,5.81a11.7,11.7,0,0,0-8.11,2.93q-3.26,2.93-3.26,9.79t2.93,9.89q2.93,3.07,8.88,3.07a17.25,17.25,0,0,0,3.74-.38,11,11,0,0,0,2.76-.94,1.53,1.53,0,0,0,1-1.13,3.16,3.16,0,0,0-.58-1.51,1.56,1.56,0,0,0-1.06-.94l-0.53.19a12,12,0,0,1-5.42,1.25q-4,0-5.74-2.26t-1.7-7.34q0-9.17,7-9.17a12.78,12.78,0,0,1,5.23,1.15,1.16,1.16,0,0,1,.31.12,0.43,0.43,0,0,0,.22.07,1.55,1.55,0,0,0,1-1,3.54,3.54,0,0,0,.55-1.61q0-.86-2.21-1.54a17.13,17.13,0,0,0-5-.67m-25.8,3.46q5.76,0,5.76,7.58H170.18q0.53-7.58,6.72-7.58M177,21.93q-5.52,0-8.35,3.31t-2.83,9.7q0,6.43,2.88,9.55t8.88,3.12a17.27,17.27,0,0,0,4.25-.5,11.43,11.43,0,0,0,3.19-1.25,2,2,0,0,0,1.2-1.32,3.19,3.19,0,0,0-.6-1.44,1.62,1.62,0,0,0-1.08-1,5.23,5.23,0,0,0-1.1.5,17.69,17.69,0,0,1-2.42,1,10.72,10.72,0,0,1-3.48.5,7,7,0,0,1-5.33-1.87q-1.78-1.87-2.06-5.86h15.17a1.53,1.53,0,0,0,1-.77,2.32,2.32,0,0,0,.58-1.2q0-6.14-2.5-9.34T177,21.93M158,22.12h-0.19q-1.92,0-1.92,1.06V50.49a4.2,4.2,0,0,1-.7,2.78,2.43,2.43,0,0,1-1.9.77,5.84,5.84,0,0,1-1.37-.12,3,3,0,0,0-.7-0.12,1,1,0,0,0-.72.89,4.83,4.83,0,0,0-.29,1.37q0,1.44,3.5,1.44A6.85,6.85,0,0,0,158,56q1.9-1.47,1.9-5.16V23.18q0-1.05-1.92-1.06m0.19-10.9h-0.58q-1.92,0-1.92,1.06v2.83q0,1.06,1.92,1.06h0.58q1.92,0,1.92-1.06V12.28q0-1.06-1.92-1.06M138.66,25.39a6,6,0,0,1,5.18,2.3q1.68,2.3,1.68,7.1t-1.68,7.08a6,6,0,0,1-5.18,2.28,5.88,5.88,0,0,1-5.14-2.28q-1.63-2.28-1.63-7.08t1.63-7.13a5.88,5.88,0,0,1,5.14-2.28m0.14-3.46q-5.38,0-8.26,3.36t-2.88,9.6q0,6.19,2.86,9.46t8.28,3.26q5.38,0,8.14-3.24t2.76-9.48q0-6.29-2.81-9.62t-8.09-3.34m-16.76,0q-3,0-5.57,3.6,0-.24-0.22-1a7.47,7.47,0,0,0-.48-1.46,1,1,0,0,0-1-.7,6.11,6.11,0,0,0-1.68.26,1,1,0,0,0-.91.84q0,0.14.29,1.51a24.8,24.8,0,0,1,.29,4.54V46.36q0,1.06,1.92,1.06h0.19q1.92,0,1.92-1.06V28.8a4.16,4.16,0,0,1,.67-0.86,8.13,8.13,0,0,1,1.66-1.42,3.73,3.73,0,0,1,2.09-.65,4.83,4.83,0,0,1,1.7.26,3.4,3.4,0,0,0,.94.26,1,1,0,0,0,.67-0.89,5.52,5.52,0,0,0,.29-1.7,1.6,1.6,0,0,0-.72-1.34,3.45,3.45,0,0,0-2.06-.53M96.72,17.37a8.07,8.07,0,0,1,4.56,1.27q1.92,1.27,1.92,4.49,0,3.46-1.87,4.85a6.5,6.5,0,0,1-3.94,1.39H89.91v-12h6.82Zm0.14-3.65H87.12a1.52,1.52,0,0,0-1.1.34,1.52,1.52,0,0,0-.34,1.1v31.2q0,1.06,1.92,1.06H88q1.92,0,1.92-1.06V33h7.44a13.72,13.72,0,0,0,4.18-.74,8.92,8.92,0,0,0,6-9.14q0-5.38-3.24-7.39a13.84,13.84,0,0,0-7.46-2"/><path class="cls-2" d="M17.79,55.35C25.37,51,33.28,40.56,38.06,30c2.78-6.17,4.51-12.39,4.49-17.51,0-4.88-1.87-8.32-4.49-10.33-6.3-4.83-17-1.39-17,10.33,0,5.38,1.81,11.34,4,16.47l4.08-.24,1.08-2.26c-1.37-3.2-3.34-8.77-3.55-13.36C26.25,3.19,37,2.9,36.92,12.4a35.63,35.63,0,0,1-2.35,11A68.05,68.05,0,0,1,23.24,43c-2.16,2.57-5.62,6.16-9,7.91-6.91,3.52-11-3.45-6.7-7.59,3.57-3.46,11.71-5.05,16.19-5.59,1.31-2,2.7-4,3.9-6.1C20.76,32,12.78,33.38,7,36.72a16.69,16.69,0,0,0-4.75,3.94c-6.8,8.55,2.58,22.13,15.51,14.7"/><path class="cls-2" d="M38.46,35.62l-0.4.73-0.62,1.12,0.62,0.05c6.65,0.62,20.29,3.17,19.8,9.85-0.28,3.75-3.9,5.25-7.08,4.13C46.12,49.87,41,43.94,38.33,40.44l-0.27,0-2.27-.18-2.23,3.38A59.19,59.19,0,0,0,38.06,49a34.93,34.93,0,0,0,7.75,6.34c12.19,7,21.69-4.93,16.28-13.62a15.51,15.51,0,0,0-5.53-5C51.91,34,45.84,32.62,40.29,32Z"/></svg>