<svg id="Vrstva_1" data-name="Vrstva 1" xmlns="http://www.w3.org/2000/svg" viewBox="0 0 61.79 55.82"><defs><style>.cls-1{fill:#4ca0ff;}</style></defs><title>Ikona Projectino - color</title><path class="cls-1" d="M346.36,266.09c0-4.73-1.82-8.08-4.36-10-6.11-4.69-16.49-1.35-16.53,10,0,5.22,1.76,11,3.92,16l4-.24,1-2.2c-1.33-3.11-3.25-8.51-3.45-13-0.43-9.57,10-9.85,9.94-.63a34.61,34.61,0,0,1-2.29,10.63,66,66,0,0,1-11,19.07c-2.1,2.5-5.45,6-8.77,7.68-6.71,3.42-10.65-3.35-6.5-7.37,3.47-3.36,11.37-4.91,15.72-5.43,1.27-1.95,2.62-3.91,3.78-5.93-6.63.36-14.38,1.72-20,5a16.19,16.19,0,0,0-4.61,3.82c-6.6,8.3,2.5,21.48,15.05,14.27,7.36-4.23,15-14.37,19.68-24.66C344.7,277.1,346.37,271.05,346.36,266.09Z" transform="translate(-305.04 -254.01)"/><path class="cls-1" d="M365.33,294.53a15,15,0,0,0-5.37-4.88c-4.52-2.62-10.41-4-15.8-4.59l-1.77,3.54-0.39.71-0.6,1.08,0.6,0.05c6.45,0.6,19.7,3.08,19.22,9.56-0.27,3.64-3.78,5.1-6.87,4-4.52-1.59-9.53-7.34-12.08-10.74l-0.26,0-2.2-.17-2.16,3.28a57.77,57.77,0,0,0,4.36,5.24,34,34,0,0,0,7.52,6.16C361.36,314.55,370.58,303,365.33,294.53Z" transform="translate(-305.04 -254.01)"/></svg>