<?xml version="1.0" standalone="no"?>
<!DOCTYPE svg PUBLIC "-//W3C//DTD SVG 20010904//EN"
 "http://www.w3.org/TR/2001/REC-SVG-20010904/DTD/svg10.dtd">
<svg version="1.0" xmlns="http://www.w3.org/2000/svg"
 width="600.000000pt" height="600.000000pt" viewBox="0 0 600.000000 600.000000"
 preserveAspectRatio="xMidYMid meet">
<metadata>
Created by potrace 1.11, written by Peter Selinger 2001-2013
</metadata>
<g transform="translate(0.000000,600.000000) scale(0.100000,-0.100000)"
fill="#000000" stroke="none">
<path d="M2977 5664 c-1 -1 -36 -4 -78 -7 -41 -3 -87 -11 -102 -16 -15 -6 -27
-8 -27 -6 0 2 -39 -9 -87 -26 -148 -52 -262 -125 -367 -233 -61 -64 -146 -176
-146 -194 0 -6 -3 -12 -8 -14 -22 -9 -113 -247 -126 -332 -4 -21 -8 -41 -10
-45 -19 -30 -27 -349 -14 -511 15 -172 67 -431 143 -700 23 -84 133 -390 172
-480 47 -110 52 -119 71 -115 10 2 79 6 153 10 74 4 145 8 159 10 14 2 31 4
37 4 7 1 33 45 59 99 48 102 49 119 20 185 -105 235 -241 690 -272 912 -2 17
-6 41 -9 55 -17 83 -23 251 -12 365 22 245 153 443 338 511 102 38 239 24 336
-32 106 -63 199 -200 240 -354 28 -105 22 -419 -10 -565 -3 -11 -8 -41 -11
-66 -9 -69 -81 -354 -111 -439 -14 -41 -28 -82 -30 -91 -2 -9 -13 -41 -25 -70
-12 -30 -26 -63 -30 -74 -141 -362 -295 -674 -520 -1054 -8 -14 -18 -30 -23
-35 -4 -6 -50 -75 -102 -154 -168 -254 -312 -440 -510 -662 -55 -61 -253 -258
-301 -298 -107 -92 -132 -111 -212 -169 -317 -226 -599 -268 -805 -119 -127
92 -193 270 -162 436 21 119 136 268 279 365 198 133 528 258 891 336 33 7 65
14 70 15 75 17 327 58 391 62 16 2 50 44 132 170 145 221 193 297 225 355 l27
48 -82 -6 c-181 -13 -235 -18 -383 -36 -89 -11 -91 -11 -230 -35 -55 -9 -107
-17 -115 -19 -90 -13 -392 -89 -525 -132 -159 -51 -273 -97 -420 -168 -239
-116 -355 -196 -511 -353 -197 -197 -292 -417 -295 -681 -5 -439 285 -822 711
-940 304 -85 655 -12 1013 210 338 210 727 596 1082 1074 139 187 344 508 475
745 112 201 359 719 375 785 1 6 7 21 12 35 100 245 224 689 248 895 3 22 7
49 10 61 28 126 25 530 -5 634 -5 17 -9 31 -9 33 3 31 -53 190 -96 277 -165
329 -477 531 -843 543 -24 1 -44 1 -45 1z"/>
<path d="M3693 2518 c-51 -100 -110 -213 -130 -250 -21 -37 -36 -69 -33 -71 3
-3 34 -8 70 -11 123 -13 190 -22 345 -46 123 -20 143 -23 230 -40 82 -17 87
-18 170 -38 251 -63 432 -125 590 -203 127 -62 151 -76 235 -138 160 -119 243
-257 243 -406 2 -276 -202 -463 -491 -450 -311 15 -780 379 -1246 968 -38 48
-76 87 -85 88 -30 1 -146 9 -183 13 l-36 4 -103 -154 c-89 -135 -101 -157 -92
-177 10 -20 207 -269 243 -308 8 -8 49 -53 90 -100 339 -382 750 -686 1070
-793 41 -14 87 -27 103 -30 15 -2 35 -7 45 -10 41 -12 84 -17 197 -23 243 -11
455 53 641 193 132 100 228 218 297 365 30 65 42 97 63 174 23 82 33 263 20
355 -13 86 -57 222 -97 298 -65 123 -154 230 -315 380 -8 8 -65 47 -126 88
-261 175 -644 325 -1052 414 -159 35 -400 76 -502 85 l-69 7 -92 -184z"/>
</g>
</svg>
