<svg id="Vrstva_1" data-name="Vrstva 1" xmlns="http://www.w3.org/2000/svg" viewBox="0 0 59.42 45.51"><defs><style>.cls-1{fill:#e20000;}.cls-2{fill:#454863;}</style></defs><title>Ikona RedmineX - color</title><path class="cls-1" d="M362.29,616.5h-1.8a7.81,7.81,0,0,0-1.8.16,1.66,1.66,0,0,0-1,.71l-5.52,8.56-5.25-8.56q-0.51-.87-2.76-0.87h-1.89a7.93,7.93,0,0,0-2.21.23,0.82,0.82,0,0,0-.74.64,2.7,2.7,0,0,0,.46,1.15L348.2,632l-9.48,14.87a2.44,2.44,0,0,0-.46,1.15q0,0.87,2.9.87h1.75a7.75,7.75,0,0,0,1.82-.16,1.66,1.66,0,0,0,1-.71l6.35-9.9,6.12,9.9q0.51,0.87,2.76.87h1.8q2.9,0,2.9-.87a2.38,2.38,0,0,0-.42-1.15L356,632.11l8.7-13.58a2.07,2.07,0,0,0,.46-1.15q0-.87-2.9-0.87" transform="translate(-306.23 -616.5)"/><path class="cls-2" d="M320.8,627.63a5.29,5.29,0,0,1,3.7,1.23,4.3,4.3,0,0,1,1.35,3.34,5.23,5.23,0,0,1-1.39,3.67,4.29,4.29,0,0,1-3.25,1.51H315.5v-9.75h5.3Zm-0.42-7.89H308.64a2.07,2.07,0,0,0-2.41,2.41v37.93q0,1.93,3.61,1.93h2q3.61,0,3.61-1.93V645.39h2.35a7,7,0,0,1,3.88.81,7.54,7.54,0,0,1,2.2,2.8l4.76,11.74q0.48,1.26,3.49,1.27h2.47a8.34,8.34,0,0,0,2.71-.33,1.07,1.07,0,0,0,.9-0.87,3.66,3.66,0,0,0-.3-1.14l-5.3-13.25a15.55,15.55,0,0,0-2-3.52,5.65,5.65,0,0,0-2.35-2v-0.24a11.14,11.14,0,0,0,5.15-3.7,9.43,9.43,0,0,0,1.9-5.87q0-11.32-15-11.32" transform="translate(-306.23 -616.5)"/></svg>