<?xml version="1.0" standalone="no"?>
<!DOCTYPE svg PUBLIC "-//W3C//DTD SVG 20010904//EN"
 "http://www.w3.org/TR/2001/REC-SVG-20010904/DTD/svg10.dtd">
<svg version="1.0" xmlns="http://www.w3.org/2000/svg"
 width="500.000000pt" height="500.000000pt" viewBox="0 0 500.000000 500.000000"
 preserveAspectRatio="xMidYMid meet">
<metadata>
Created by potrace 1.11, written by Peter Selinger 2001-2013
</metadata>
<g transform="translate(0.000000,500.000000) scale(0.100000,-0.100000)"
fill="#000000" stroke="none">
<path d="M2861 4375 c-53 -13 -81 -34 -81 -62 0 -31 43 -102 379 -640 193
-310 351 -565 351 -568 0 -3 -28 -49 -63 -103 -35 -53 -81 -125 -103 -160 -21
-34 -55 -87 -74 -117 -19 -30 -81 -128 -138 -217 -57 -90 -131 -206 -164 -258
-262 -407 -267 -415 -270 -461 -3 -27 2 -35 27 -50 17 -10 46 -21 65 -24 50
-9 378 -9 420 0 54 11 94 48 150 137 28 46 109 173 180 283 71 110 166 258
211 329 77 119 84 127 97 110 8 -10 125 -199 260 -418 264 -426 263 -426 352
-441 44 -8 355 -9 397 -1 123 23 130 62 35 214 -107 174 -415 667 -457 732
-23 36 -77 122 -121 192 -43 71 -95 154 -115 186 l-37 58 233 365 c129 200
295 460 369 576 75 117 141 225 147 240 34 89 -38 113 -326 110 -259 -3 -235
12 -402 -247 -72 -113 -177 -276 -233 -362 -90 -140 -120 -177 -120 -150 0 5
-13 28 -29 53 -36 57 -319 517 -360 588 -64 109 -81 115 -331 117 -134 2 -212
-2 -249 -11z"/>
<path d="M168 4117 c-50 -13 -89 -46 -108 -91 -17 -39 -18 -134 -16 -1666 1
-1535 2 -1627 19 -1653 22 -34 78 -62 148 -76 74 -14 411 -8 471 8 59 16 113
67 121 113 3 18 6 302 6 632 0 329 3 601 6 605 12 12 300 8 356 -5 101 -23
160 -56 221 -123 75 -83 95 -124 243 -491 70 -173 133 -328 140 -345 7 -16 37
-88 65 -160 69 -172 72 -177 117 -202 61 -34 133 -42 368 -39 167 2 233 6 275
18 70 21 94 49 86 101 -8 48 -477 1221 -518 1296 -81 147 -174 259 -255 308
-46 27 -53 41 -25 49 73 21 211 104 281 169 145 133 213 242 257 409 20 80 23
109 20 236 -4 148 -6 161 -32 263 -49 191 -178 360 -352 462 -188 111 -424
168 -742 182 -211 8 -1118 9 -1152 0z m1237 -671 c161 -56 252 -174 259 -335
7 -177 -85 -341 -232 -413 l-67 -33 -276 -1 -276 -2 -1 396 c0 227 3 399 8
402 5 3 128 5 272 4 221 -1 271 -4 313 -18z"/>
</g>
</svg>
